<?xml version="1.0" encoding="UTF-8" standalone="no"?>
<!DOCTYPE svg PUBLIC "-//W3C//DTD SVG 1.1//EN"
 "http://www.w3.org/Graphics/SVG/1.1/DTD/svg11.dtd">
<!-- Generated by graphviz version 2.40.1 (20161225.0304)
 -->
<!-- Title: dependencies Pages: 1 -->
<svg width="1424pt" height="284pt"
 viewBox="0.00 0.00 1424.00 284.00" xmlns="http://www.w3.org/2000/svg" xmlns:xlink="http://www.w3.org/1999/xlink">
<g id="graph0" class="graph" transform="scale(1 1) rotate(0) translate(4 280)">
<title>dependencies</title>
<polygon fill="#ffffff" stroke="transparent" points="-4,4 -4,-280 1420,-280 1420,4 -4,4"/>
<text text-anchor="start" x="687.0091" y="-42.4" font-family="sans-serif" font-weight="bold" font-size="14.00" fill="#000000">Legend</text>
<polygon fill="#ffffb3" stroke="transparent" points="474,-10 474,-30 494,-30 494,-10 474,-10"/>
<text text-anchor="start" x="497.629" y="-15.4" font-family="sans-serif" font-size="14.00" fill="#000000"> &#160;Declarations</text>
<polygon fill="#8dd3c7" stroke="transparent" points="587,-10 587,-30 607,-30 607,-10 587,-10"/>
<text text-anchor="start" x="610.7251" y="-15.4" font-family="sans-serif" font-size="14.00" fill="#000000"> &#160;Module</text>
<polygon fill="#80b1d3" stroke="transparent" points="673,-10 673,-30 693,-30 693,-10 673,-10"/>
<text text-anchor="start" x="696.7812" y="-15.4" font-family="sans-serif" font-size="14.00" fill="#000000"> &#160;Bootstrap</text>
<polygon fill="#fdb462" stroke="transparent" points="770,-10 770,-30 790,-30 790,-10 770,-10"/>
<text text-anchor="start" x="793.6732" y="-15.4" font-family="sans-serif" font-size="14.00" fill="#000000"> &#160;Providers</text>
<polygon fill="#fb8072" stroke="transparent" points="866,-10 866,-30 886,-30 886,-10 866,-10"/>
<text text-anchor="start" x="889.7258" y="-15.4" font-family="sans-serif" font-size="14.00" fill="#000000"> &#160;Exports</text>
<g id="clust1" class="cluster">
<title>cluster_DashboardModule</title>
<polygon fill="none" stroke="#000000" stroke-dasharray="1,5" points="8,-70 8,-268 1408,-268 1408,-70 8,-70"/>
</g>
<g id="clust2" class="cluster">
<title>cluster_DashboardModule_declarations</title>
<polygon fill="none" stroke="#000000" points="16,-78 16,-130 1400,-130 1400,-78 16,-78"/>
</g>
<g id="clust13" class="cluster">
<title>cluster_DashboardModule_exports</title>
<polygon fill="none" stroke="#000000" points="475,-208 475,-260 963,-260 963,-208 475,-208"/>
</g>
<!-- BodyComponent -->
<g id="node1" class="node">
<title>BodyComponent</title>
<polygon fill="#ffffb3" stroke="#000000" points="1391.6695,-122 1280.3305,-122 1280.3305,-86 1391.6695,-86 1391.6695,-122"/>
<text text-anchor="middle" x="1336" y="-99.8" font-family="Times,serif" font-size="14.00" fill="#000000">BodyComponent</text>
</g>
<!-- DashboardModule -->
<g id="node10" class="node">
<title>DashboardModule</title>
<polygon fill="#8dd3c7" stroke="#000000" points="786.191,-187 783.191,-191 762.191,-191 759.191,-187 665.809,-187 665.809,-151 786.191,-151 786.191,-187"/>
<text text-anchor="middle" x="726" y="-164.8" font-family="Times,serif" font-size="14.00" fill="#000000">DashboardModule</text>
</g>
<!-- BodyComponent&#45;&gt;DashboardModule -->
<g id="edge1" class="edge">
<title>BodyComponent&#45;&gt;DashboardModule</title>
<path fill="none" stroke="#000000" d="M1336,-122.2843C1336,-143.3211 1336,-175 1336,-175 1336,-175 796.1586,-175 796.1586,-175"/>
<polygon fill="#000000" stroke="#000000" points="796.1586,-171.5001 786.1586,-175 796.1585,-178.5001 796.1586,-171.5001"/>
</g>
<!-- BookStatusComponent -->
<g id="node2" class="node">
<title>BookStatusComponent</title>
<polygon fill="#ffffb3" stroke="#000000" points="1261.892,-122 1116.108,-122 1116.108,-86 1261.892,-86 1261.892,-122"/>
<text text-anchor="middle" x="1189" y="-99.8" font-family="Times,serif" font-size="14.00" fill="#000000">BookStatusComponent</text>
</g>
<!-- BookStatusComponent&#45;&gt;DashboardModule -->
<g id="edge2" class="edge">
<title>BookStatusComponent&#45;&gt;DashboardModule</title>
<path fill="none" stroke="#000000" d="M1189,-122.1061C1189,-141.3391 1189,-169 1189,-169 1189,-169 796.5292,-169 796.5292,-169"/>
<polygon fill="#000000" stroke="#000000" points="796.5292,-165.5001 786.5292,-169 796.5291,-172.5001 796.5292,-165.5001"/>
</g>
<!-- CardHoverDirective -->
<g id="node3" class="node">
<title>CardHoverDirective</title>
<polygon fill="#ffffb3" stroke="#000000" points="1098.2767,-122 967.7233,-122 967.7233,-86 1098.2767,-86 1098.2767,-122"/>
<text text-anchor="middle" x="1033" y="-99.8" font-family="Times,serif" font-size="14.00" fill="#000000">CardHoverDirective</text>
</g>
<!-- CardHoverDirective&#45;&gt;DashboardModule -->
<g id="edge3" class="edge">
<title>CardHoverDirective&#45;&gt;DashboardModule</title>
<path fill="none" stroke="#000000" d="M1033,-122.0225C1033,-139.3734 1033,-163 1033,-163 1033,-163 796.287,-163 796.287,-163"/>
<polygon fill="#000000" stroke="#000000" points="796.2871,-159.5001 786.287,-163 796.287,-166.5001 796.2871,-159.5001"/>
</g>
<!-- DashboardComponent -->
<g id="node4" class="node">
<title>DashboardComponent</title>
<polygon fill="#ffffb3" stroke="#000000" points="949.9734,-122 808.0266,-122 808.0266,-86 949.9734,-86 949.9734,-122"/>
<text text-anchor="middle" x="879" y="-99.8" font-family="Times,serif" font-size="14.00" fill="#000000">DashboardComponent</text>
</g>
<!-- DashboardComponent&#45;&gt;DashboardModule -->
<g id="edge4" class="edge">
<title>DashboardComponent&#45;&gt;DashboardModule</title>
<path fill="none" stroke="#000000" d="M903.0789,-122.2396C903.0789,-137.5706 903.0789,-157 903.0789,-157 903.0789,-157 796.4452,-157 796.4452,-157"/>
<polygon fill="#000000" stroke="#000000" points="796.4453,-153.5001 786.4452,-157 796.4452,-160.5001 796.4453,-153.5001"/>
</g>
<!-- DateBarComponent -->
<g id="node5" class="node">
<title>DateBarComponent</title>
<polygon fill="#ffffb3" stroke="#000000" points="789.9706,-122 662.0294,-122 662.0294,-86 789.9706,-86 789.9706,-122"/>
<text text-anchor="middle" x="726" y="-99.8" font-family="Times,serif" font-size="14.00" fill="#000000">DateBarComponent</text>
</g>
<!-- DateBarComponent&#45;&gt;DashboardModule -->
<g id="edge5" class="edge">
<title>DateBarComponent&#45;&gt;DashboardModule</title>
<path fill="none" stroke="#000000" d="M726,-122.1061C726,-122.1061 726,-140.991 726,-140.991"/>
<polygon fill="#000000" stroke="#000000" points="722.5001,-140.9909 726,-150.991 729.5001,-140.991 722.5001,-140.9909"/>
</g>
<!-- HeaderComponent -->
<g id="node6" class="node">
<title>HeaderComponent</title>
<polygon fill="#ffffb3" stroke="#000000" points="643.7437,-122 522.2563,-122 522.2563,-86 643.7437,-86 643.7437,-122"/>
<text text-anchor="middle" x="583" y="-99.8" font-family="Times,serif" font-size="14.00" fill="#000000">HeaderComponent</text>
</g>
<!-- HeaderComponent&#45;&gt;DashboardModule -->
<g id="edge6" class="edge">
<title>HeaderComponent&#45;&gt;DashboardModule</title>
<path fill="none" stroke="#000000" d="M602.5372,-122.2396C602.5372,-137.5706 602.5372,-157 602.5372,-157 602.5372,-157 655.7153,-157 655.7153,-157"/>
<polygon fill="#000000" stroke="#000000" points="655.7153,-160.5001 665.7153,-157 655.7153,-153.5001 655.7153,-160.5001"/>
</g>
<!-- RoomStatusComponent -->
<g id="node7" class="node">
<title>RoomStatusComponent</title>
<polygon fill="#ffffb3" stroke="#000000" points="503.7828,-122 354.2172,-122 354.2172,-86 503.7828,-86 503.7828,-122"/>
<text text-anchor="middle" x="429" y="-99.8" font-family="Times,serif" font-size="14.00" fill="#000000">RoomStatusComponent</text>
</g>
<!-- RoomStatusComponent&#45;&gt;DashboardModule -->
<g id="edge7" class="edge">
<title>RoomStatusComponent&#45;&gt;DashboardModule</title>
<path fill="none" stroke="#000000" d="M493.5749,-122.0225C493.5749,-139.3734 493.5749,-163 493.5749,-163 493.5749,-163 655.8425,-163 655.8425,-163"/>
<polygon fill="#000000" stroke="#000000" points="655.8425,-166.5001 665.8425,-163 655.8424,-159.5001 655.8425,-166.5001"/>
</g>
<!-- SchedularComponent -->
<g id="node8" class="node">
<title>SchedularComponent</title>
<polygon fill="#ffffb3" stroke="#000000" points="335.8104,-122 198.1896,-122 198.1896,-86 335.8104,-86 335.8104,-122"/>
<text text-anchor="middle" x="267" y="-99.8" font-family="Times,serif" font-size="14.00" fill="#000000">SchedularComponent</text>
</g>
<!-- SchedularComponent&#45;&gt;DashboardModule -->
<g id="edge8" class="edge">
<title>SchedularComponent&#45;&gt;DashboardModule</title>
<path fill="none" stroke="#000000" d="M267,-122.1061C267,-141.3391 267,-169 267,-169 267,-169 655.5218,-169 655.5218,-169"/>
<polygon fill="#000000" stroke="#000000" points="655.5218,-172.5001 665.5218,-169 655.5217,-165.5001 655.5218,-172.5001"/>
</g>
<!-- SummaryBarComponent -->
<g id="node9" class="node">
<title>SummaryBarComponent</title>
<polygon fill="#ffffb3" stroke="#000000" points="179.9832,-122 24.0168,-122 24.0168,-86 179.9832,-86 179.9832,-122"/>
<text text-anchor="middle" x="102" y="-99.8" font-family="Times,serif" font-size="14.00" fill="#000000">SummaryBarComponent</text>
</g>
<!-- SummaryBarComponent&#45;&gt;DashboardModule -->
<g id="edge9" class="edge">
<title>SummaryBarComponent&#45;&gt;DashboardModule</title>
<path fill="none" stroke="#000000" d="M102,-122.2843C102,-143.3211 102,-175 102,-175 102,-175 655.885,-175 655.885,-175"/>
<polygon fill="#000000" stroke="#000000" points="655.8851,-178.5001 665.885,-175 655.885,-171.5001 655.8851,-178.5001"/>
</g>
<!-- DashboardComponent  -->
<g id="node11" class="node">
<title>DashboardComponent </title>
<polygon fill="#fb8072" stroke="#000000" points="954.9742,-252 809.0258,-252 809.0258,-216 954.9742,-216 954.9742,-252"/>
<text text-anchor="middle" x="882" y="-229.8" font-family="Times,serif" font-size="14.00" fill="#000000">DashboardComponent </text>
</g>
<!-- DashboardModule&#45;&gt;DashboardComponent  -->
<g id="edge10" class="edge">
<title>DashboardModule&#45;&gt;DashboardComponent </title>
<path fill="none" stroke="#000000" stroke-dasharray="5,2" d="M786.1321,-181C820.2393,-181 856.1711,-181 856.1711,-181 856.1711,-181 856.1711,-205.7604 856.1711,-205.7604"/>
<polygon fill="#000000" stroke="#000000" points="852.6712,-205.7604 856.1711,-215.7604 859.6712,-205.7604 852.6712,-205.7604"/>
</g>
<!-- DateBarComponent  -->
<g id="node12" class="node">
<title>DateBarComponent </title>
<polygon fill="#fb8072" stroke="#000000" points="791.9714,-252 660.0286,-252 660.0286,-216 791.9714,-216 791.9714,-252"/>
<text text-anchor="middle" x="726" y="-229.8" font-family="Times,serif" font-size="14.00" fill="#000000">DateBarComponent </text>
</g>
<!-- DashboardModule&#45;&gt;DateBarComponent  -->
<g id="edge11" class="edge">
<title>DashboardModule&#45;&gt;DateBarComponent </title>
<path fill="none" stroke="#000000" stroke-dasharray="5,2" d="M726,-187.1061C726,-187.1061 726,-205.991 726,-205.991"/>
<polygon fill="#000000" stroke="#000000" points="722.5001,-205.9909 726,-215.991 729.5001,-205.991 722.5001,-205.9909"/>
</g>
<!-- SummaryBarComponent  -->
<g id="node13" class="node">
<title>SummaryBarComponent </title>
<polygon fill="#fb8072" stroke="#000000" points="642.9839,-252 483.0161,-252 483.0161,-216 642.9839,-216 642.9839,-252"/>
<text text-anchor="middle" x="563" y="-229.8" font-family="Times,serif" font-size="14.00" fill="#000000">SummaryBarComponent </text>
</g>
<!-- DashboardModule&#45;&gt;SummaryBarComponent  -->
<g id="edge12" class="edge">
<title>DashboardModule&#45;&gt;SummaryBarComponent </title>
<path fill="none" stroke="#000000" stroke-dasharray="5,2" d="M665.5214,-181C618.8987,-181 562.3327,-181 562.3327,-181 562.3327,-181 562.3327,-205.7604 562.3327,-205.7604"/>
<polygon fill="#000000" stroke="#000000" points="558.8328,-205.7604 562.3327,-215.7604 565.8328,-205.7604 558.8328,-205.7604"/>
</g>
</g>
</svg>
