<?xml version="1.0" encoding="UTF-8" standalone="no"?>
<!DOCTYPE svg PUBLIC "-//W3C//DTD SVG 1.1//EN"
 "http://www.w3.org/Graphics/SVG/1.1/DTD/svg11.dtd">
<!-- Generated by graphviz version 2.40.1 (20161225.0304)
 -->
<!-- Title: dependencies Pages: 1 -->
<svg width="2371pt" height="211pt"
 viewBox="0.00 0.00 2371.00 211.00" xmlns="http://www.w3.org/2000/svg" xmlns:xlink="http://www.w3.org/1999/xlink">
<g id="graph0" class="graph" transform="scale(1 1) rotate(0) translate(4 207)">
<title>dependencies</title>
<polygon fill="#ffffff" stroke="transparent" points="-4,4 -4,-207 2367,-207 2367,4 -4,4"/>
<text text-anchor="start" x="1160.5091" y="-42.4" font-family="sans-serif" font-weight="bold" font-size="14.00" fill="#000000">Legend</text>
<polygon fill="#ffffb3" stroke="transparent" points="947.5,-10 947.5,-30 967.5,-30 967.5,-10 947.5,-10"/>
<text text-anchor="start" x="971.129" y="-15.4" font-family="sans-serif" font-size="14.00" fill="#000000"> &#160;Declarations</text>
<polygon fill="#8dd3c7" stroke="transparent" points="1060.5,-10 1060.5,-30 1080.5,-30 1080.5,-10 1060.5,-10"/>
<text text-anchor="start" x="1084.2251" y="-15.4" font-family="sans-serif" font-size="14.00" fill="#000000"> &#160;Module</text>
<polygon fill="#80b1d3" stroke="transparent" points="1146.5,-10 1146.5,-30 1166.5,-30 1166.5,-10 1146.5,-10"/>
<text text-anchor="start" x="1170.2812" y="-15.4" font-family="sans-serif" font-size="14.00" fill="#000000"> &#160;Bootstrap</text>
<polygon fill="#fdb462" stroke="transparent" points="1243.5,-10 1243.5,-30 1263.5,-30 1263.5,-10 1243.5,-10"/>
<text text-anchor="start" x="1267.1732" y="-15.4" font-family="sans-serif" font-size="14.00" fill="#000000"> &#160;Providers</text>
<polygon fill="#fb8072" stroke="transparent" points="1339.5,-10 1339.5,-30 1359.5,-30 1359.5,-10 1339.5,-10"/>
<text text-anchor="start" x="1363.2258" y="-15.4" font-family="sans-serif" font-size="14.00" fill="#000000"> &#160;Exports</text>
<g id="clust1" class="cluster">
<title>cluster_FrontOfficeModule</title>
<polygon fill="none" stroke="#000000" stroke-dasharray="1,5" points="8,-70 8,-195 2355,-195 2355,-70 8,-70"/>
</g>
<g id="clust2" class="cluster">
<title>cluster_FrontOfficeModule_declarations</title>
<polygon fill="none" stroke="#000000" points="210,-78 210,-130 2347,-130 2347,-78 210,-78"/>
</g>
<g id="clust16" class="cluster">
<title>cluster_FrontOfficeModule_imports</title>
<polygon fill="none" stroke="#000000" points="16,-78 16,-130 202,-130 202,-78 16,-78"/>
</g>
<!-- ArrivalListComponent -->
<g id="node1" class="node">
<title>ArrivalListComponent</title>
<polygon fill="#ffffb3" stroke="#000000" points="2338.5352,-122 2195.4648,-122 2195.4648,-86 2338.5352,-86 2338.5352,-122"/>
<text text-anchor="middle" x="2267" y="-99.8" font-family="Times,serif" font-size="14.00" fill="#000000">ArrivalListComponent</text>
</g>
<!-- FrontOfficeModule -->
<g id="node14" class="node">
<title>FrontOfficeModule</title>
<polygon fill="#8dd3c7" stroke="#000000" points="1285.6317,-187 1282.6317,-191 1261.6317,-191 1258.6317,-187 1160.3683,-187 1160.3683,-151 1285.6317,-151 1285.6317,-187"/>
<text text-anchor="middle" x="1223" y="-164.8" font-family="Times,serif" font-size="14.00" fill="#000000">FrontOfficeModule</text>
</g>
<!-- ArrivalListComponent&#45;&gt;FrontOfficeModule -->
<g id="edge1" class="edge">
<title>ArrivalListComponent&#45;&gt;FrontOfficeModule</title>
<path fill="none" stroke="#000000" d="M2267,-122.0908C2267,-145.1328 2267,-182 2267,-182 2267,-182 1295.9558,-182 1295.9558,-182"/>
<polygon fill="#000000" stroke="#000000" points="1295.9558,-178.5001 1285.9558,-182 1295.9558,-185.5001 1295.9558,-178.5001"/>
</g>
<!-- BookingListComponent -->
<g id="node2" class="node">
<title>BookingListComponent</title>
<polygon fill="#ffffb3" stroke="#000000" points="2177.8384,-122 2026.1616,-122 2026.1616,-86 2177.8384,-86 2177.8384,-122"/>
<text text-anchor="middle" x="2102" y="-99.8" font-family="Times,serif" font-size="14.00" fill="#000000">BookingListComponent</text>
</g>
<!-- BookingListComponent&#45;&gt;FrontOfficeModule -->
<g id="edge2" class="edge">
<title>BookingListComponent&#45;&gt;FrontOfficeModule</title>
<path fill="none" stroke="#000000" d="M2102,-122.0449C2102,-143.6623 2102,-177 2102,-177 2102,-177 1295.8628,-177 1295.8628,-177"/>
<polygon fill="#000000" stroke="#000000" points="1295.8628,-173.5001 1285.8628,-177 1295.8627,-180.5001 1295.8628,-173.5001"/>
</g>
<!-- CheckinComponent -->
<g id="node3" class="node">
<title>CheckinComponent</title>
<polygon fill="#ffffb3" stroke="#000000" points="2007.9888,-122 1880.0112,-122 1880.0112,-86 2007.9888,-86 2007.9888,-122"/>
<text text-anchor="middle" x="1944" y="-99.8" font-family="Times,serif" font-size="14.00" fill="#000000">CheckinComponent</text>
</g>
<!-- CheckinComponent&#45;&gt;FrontOfficeModule -->
<g id="edge3" class="edge">
<title>CheckinComponent&#45;&gt;FrontOfficeModule</title>
<path fill="none" stroke="#000000" d="M1944,-122.2228C1944,-142.3652 1944,-172 1944,-172 1944,-172 1295.7227,-172 1295.7227,-172"/>
<polygon fill="#000000" stroke="#000000" points="1295.7228,-168.5001 1285.7227,-172 1295.7227,-175.5001 1295.7228,-168.5001"/>
</g>
<!-- DepartureListComponent -->
<g id="node4" class="node">
<title>DepartureListComponent</title>
<polygon fill="#ffffb3" stroke="#000000" points="1861.573,-122 1702.427,-122 1702.427,-86 1861.573,-86 1861.573,-122"/>
<text text-anchor="middle" x="1782" y="-99.8" font-family="Times,serif" font-size="14.00" fill="#000000">DepartureListComponent</text>
</g>
<!-- DepartureListComponent&#45;&gt;FrontOfficeModule -->
<g id="edge4" class="edge">
<title>DepartureListComponent&#45;&gt;FrontOfficeModule</title>
<path fill="none" stroke="#000000" d="M1782,-122.2222C1782,-140.8285 1782,-167 1782,-167 1782,-167 1295.7673,-167 1295.7673,-167"/>
<polygon fill="#000000" stroke="#000000" points="1295.7673,-163.5001 1285.7673,-167 1295.7673,-170.5001 1295.7673,-163.5001"/>
</g>
<!-- Filter200Pipe -->
<g id="node5" class="node">
<title>Filter200Pipe</title>
<polygon fill="#ffffb3" stroke="#000000" points="1684.2177,-122 1591.7823,-122 1591.7823,-86 1684.2177,-86 1684.2177,-122"/>
<text text-anchor="middle" x="1638" y="-99.8" font-family="Times,serif" font-size="14.00" fill="#000000">Filter200Pipe</text>
</g>
<!-- Filter200Pipe&#45;&gt;FrontOfficeModule -->
<g id="edge5" class="edge">
<title>Filter200Pipe&#45;&gt;FrontOfficeModule</title>
<path fill="none" stroke="#000000" d="M1638,-122.0336C1638,-139.0597 1638,-162 1638,-162 1638,-162 1296.0296,-162 1296.0296,-162"/>
<polygon fill="#000000" stroke="#000000" points="1296.0296,-158.5001 1286.0296,-162 1296.0295,-165.5001 1296.0296,-158.5001"/>
</g>
<!-- GuestDataBaseComponent -->
<g id="node6" class="node">
<title>GuestDataBaseComponent</title>
<polygon fill="#ffffb3" stroke="#000000" points="1573.626,-122 1406.374,-122 1406.374,-86 1573.626,-86 1573.626,-122"/>
<text text-anchor="middle" x="1490" y="-99.8" font-family="Times,serif" font-size="14.00" fill="#000000">GuestDataBaseComponent</text>
</g>
<!-- GuestDataBaseComponent&#45;&gt;FrontOfficeModule -->
<g id="edge6" class="edge">
<title>GuestDataBaseComponent&#45;&gt;FrontOfficeModule</title>
<path fill="none" stroke="#000000" d="M1490,-122.2396C1490,-137.5706 1490,-157 1490,-157 1490,-157 1295.9372,-157 1295.9372,-157"/>
<polygon fill="#000000" stroke="#000000" points="1295.9372,-153.5001 1285.9372,-157 1295.9371,-160.5001 1295.9372,-153.5001"/>
</g>
<!-- GuestLedgerComponent -->
<g id="node7" class="node">
<title>GuestLedgerComponent</title>
<polygon fill="#ffffb3" stroke="#000000" points="1387.6316,-122 1234.3684,-122 1234.3684,-86 1387.6316,-86 1387.6316,-122"/>
<text text-anchor="middle" x="1311" y="-99.8" font-family="Times,serif" font-size="14.00" fill="#000000">GuestLedgerComponent</text>
</g>
<!-- GuestLedgerComponent&#45;&gt;FrontOfficeModule -->
<g id="edge7" class="edge">
<title>GuestLedgerComponent&#45;&gt;FrontOfficeModule</title>
<path fill="none" stroke="#000000" d="M1260,-122.1061C1260,-122.1061 1260,-140.991 1260,-140.991"/>
<polygon fill="#000000" stroke="#000000" points="1256.5001,-140.9909 1260,-150.991 1263.5001,-140.991 1256.5001,-140.9909"/>
</g>
<!-- GuestMessageComponent -->
<g id="node8" class="node">
<title>GuestMessageComponent</title>
<polygon fill="#ffffb3" stroke="#000000" points="1216.4664,-122 1053.5336,-122 1053.5336,-86 1216.4664,-86 1216.4664,-122"/>
<text text-anchor="middle" x="1135" y="-99.8" font-family="Times,serif" font-size="14.00" fill="#000000">GuestMessageComponent</text>
</g>
<!-- GuestMessageComponent&#45;&gt;FrontOfficeModule -->
<g id="edge8" class="edge">
<title>GuestMessageComponent&#45;&gt;FrontOfficeModule</title>
<path fill="none" stroke="#000000" d="M1188.3338,-122.1061C1188.3338,-122.1061 1188.3338,-140.991 1188.3338,-140.991"/>
<polygon fill="#000000" stroke="#000000" points="1184.8339,-140.9909 1188.3338,-150.991 1191.8339,-140.991 1184.8339,-140.9909"/>
</g>
<!-- NewBookingComponent -->
<g id="node9" class="node">
<title>NewBookingComponent</title>
<polygon fill="#ffffb3" stroke="#000000" points="1035.9874,-122 880.0126,-122 880.0126,-86 1035.9874,-86 1035.9874,-122"/>
<text text-anchor="middle" x="958" y="-99.8" font-family="Times,serif" font-size="14.00" fill="#000000">NewBookingComponent</text>
</g>
<!-- NewBookingComponent&#45;&gt;FrontOfficeModule -->
<g id="edge9" class="edge">
<title>NewBookingComponent&#45;&gt;FrontOfficeModule</title>
<path fill="none" stroke="#000000" d="M958,-122.2396C958,-137.5706 958,-157 958,-157 958,-157 1150.1987,-157 1150.1987,-157"/>
<polygon fill="#000000" stroke="#000000" points="1150.1987,-160.5001 1160.1987,-157 1150.1987,-153.5001 1150.1987,-160.5001"/>
</g>
<!-- OutOfOrderComponent -->
<g id="node10" class="node">
<title>OutOfOrderComponent</title>
<polygon fill="#ffffb3" stroke="#000000" points="861.7394,-122 712.2606,-122 712.2606,-86 861.7394,-86 861.7394,-122"/>
<text text-anchor="middle" x="787" y="-99.8" font-family="Times,serif" font-size="14.00" fill="#000000">OutOfOrderComponent</text>
</g>
<!-- OutOfOrderComponent&#45;&gt;FrontOfficeModule -->
<g id="edge10" class="edge">
<title>OutOfOrderComponent&#45;&gt;FrontOfficeModule</title>
<path fill="none" stroke="#000000" d="M787,-122.0336C787,-139.0597 787,-162 787,-162 787,-162 1150.0675,-162 1150.0675,-162"/>
<polygon fill="#000000" stroke="#000000" points="1150.0675,-165.5001 1160.0675,-162 1150.0675,-158.5001 1150.0675,-165.5001"/>
</g>
<!-- ReservationComponent -->
<g id="node11" class="node">
<title>ReservationComponent</title>
<polygon fill="#ffffb3" stroke="#000000" points="694.1993,-122 545.8007,-122 545.8007,-86 694.1993,-86 694.1993,-122"/>
<text text-anchor="middle" x="620" y="-99.8" font-family="Times,serif" font-size="14.00" fill="#000000">ReservationComponent</text>
</g>
<!-- ReservationComponent&#45;&gt;FrontOfficeModule -->
<g id="edge11" class="edge">
<title>ReservationComponent&#45;&gt;FrontOfficeModule</title>
<path fill="none" stroke="#000000" d="M620,-122.2222C620,-140.8285 620,-167 620,-167 620,-167 1150.1749,-167 1150.1749,-167"/>
<polygon fill="#000000" stroke="#000000" points="1150.1749,-170.5001 1160.1749,-167 1150.1749,-163.5001 1150.1749,-170.5001"/>
</g>
<!-- ReservationListComponent -->
<g id="node12" class="node">
<title>ReservationListComponent</title>
<polygon fill="#ffffb3" stroke="#000000" points="527.9776,-122 358.0224,-122 358.0224,-86 527.9776,-86 527.9776,-122"/>
<text text-anchor="middle" x="443" y="-99.8" font-family="Times,serif" font-size="14.00" fill="#000000">ReservationListComponent</text>
</g>
<!-- ReservationListComponent&#45;&gt;FrontOfficeModule -->
<g id="edge12" class="edge">
<title>ReservationListComponent&#45;&gt;FrontOfficeModule</title>
<path fill="none" stroke="#000000" d="M443,-122.2228C443,-142.3652 443,-172 443,-172 443,-172 1150.1593,-172 1150.1593,-172"/>
<polygon fill="#000000" stroke="#000000" points="1150.1593,-175.5001 1160.1593,-172 1150.1593,-168.5001 1150.1593,-175.5001"/>
</g>
<!-- WalkinComponent -->
<g id="node13" class="node">
<title>WalkinComponent</title>
<polygon fill="#ffffb3" stroke="#000000" points="340.0436,-122 217.9564,-122 217.9564,-86 340.0436,-86 340.0436,-122"/>
<text text-anchor="middle" x="279" y="-99.8" font-family="Times,serif" font-size="14.00" fill="#000000">WalkinComponent</text>
</g>
<!-- WalkinComponent&#45;&gt;FrontOfficeModule -->
<g id="edge13" class="edge">
<title>WalkinComponent&#45;&gt;FrontOfficeModule</title>
<path fill="none" stroke="#000000" d="M279,-122.0449C279,-143.6623 279,-177 279,-177 279,-177 1150.3305,-177 1150.3305,-177"/>
<polygon fill="#000000" stroke="#000000" points="1150.3305,-180.5001 1160.3305,-177 1150.3304,-173.5001 1150.3305,-180.5001"/>
</g>
<!-- FrontOfficeRoutingModule -->
<g id="node15" class="node">
<title>FrontOfficeRoutingModule</title>
<polygon fill="#8dd3c7" stroke="#000000" points="194.2492,-122 191.2492,-126 170.2492,-126 167.2492,-122 23.7508,-122 23.7508,-86 194.2492,-86 194.2492,-122"/>
<text text-anchor="middle" x="109" y="-99.8" font-family="Times,serif" font-size="14.00" fill="#000000">FrontOfficeRoutingModule</text>
</g>
<!-- FrontOfficeRoutingModule&#45;&gt;FrontOfficeModule -->
<g id="edge14" class="edge">
<title>FrontOfficeRoutingModule&#45;&gt;FrontOfficeModule</title>
<path fill="none" stroke="#000000" d="M109,-122.0908C109,-145.1328 109,-182 109,-182 109,-182 1150.3177,-182 1150.3177,-182"/>
<polygon fill="#000000" stroke="#000000" points="1150.3177,-185.5001 1160.3177,-182 1150.3176,-178.5001 1150.3177,-185.5001"/>
</g>
</g>
</svg>
