<?xml version="1.0" encoding="UTF-8" standalone="no"?>
<!DOCTYPE svg PUBLIC "-//W3C//DTD SVG 1.1//EN"
 "http://www.w3.org/Graphics/SVG/1.1/DTD/svg11.dtd">
<!-- Generated by graphviz version 2.40.1 (20161225.0304)
 -->
<!-- Title: dependencies Pages: 1 -->
<svg width="504pt" height="211pt"
 viewBox="0.00 0.00 504.00 211.00" xmlns="http://www.w3.org/2000/svg" xmlns:xlink="http://www.w3.org/1999/xlink">
<g id="graph0" class="graph" transform="scale(1 1) rotate(0) translate(4 207)">
<title>dependencies</title>
<polygon fill="#ffffff" stroke="transparent" points="-4,4 -4,-207 500,-207 500,4 -4,4"/>
<text text-anchor="start" x="227.0091" y="-42.4" font-family="sans-serif" font-weight="bold" font-size="14.00" fill="#000000">Legend</text>
<polygon fill="#ffffb3" stroke="transparent" points="14,-10 14,-30 34,-30 34,-10 14,-10"/>
<text text-anchor="start" x="37.629" y="-15.4" font-family="sans-serif" font-size="14.00" fill="#000000"> &#160;Declarations</text>
<polygon fill="#8dd3c7" stroke="transparent" points="127,-10 127,-30 147,-30 147,-10 127,-10"/>
<text text-anchor="start" x="150.7251" y="-15.4" font-family="sans-serif" font-size="14.00" fill="#000000"> &#160;Module</text>
<polygon fill="#80b1d3" stroke="transparent" points="213,-10 213,-30 233,-30 233,-10 213,-10"/>
<text text-anchor="start" x="236.7812" y="-15.4" font-family="sans-serif" font-size="14.00" fill="#000000"> &#160;Bootstrap</text>
<polygon fill="#fdb462" stroke="transparent" points="310,-10 310,-30 330,-30 330,-10 310,-10"/>
<text text-anchor="start" x="333.6732" y="-15.4" font-family="sans-serif" font-size="14.00" fill="#000000"> &#160;Providers</text>
<polygon fill="#fb8072" stroke="transparent" points="406,-10 406,-30 426,-30 426,-10 406,-10"/>
<text text-anchor="start" x="429.7258" y="-15.4" font-family="sans-serif" font-size="14.00" fill="#000000"> &#160;Exports</text>
<g id="clust1" class="cluster">
<title>cluster_BackendModule</title>
<polygon fill="none" stroke="#000000" stroke-dasharray="1,5" points="92,-70 92,-195 404,-195 404,-70 92,-70"/>
</g>
<g id="clust6" class="cluster">
<title>cluster_BackendModule_providers</title>
<polygon fill="none" stroke="#000000" points="100,-78 100,-130 396,-130 396,-78 100,-78"/>
</g>
<!-- AuthInterceptor -->
<g id="node1" class="node">
<title>AuthInterceptor</title>
<ellipse fill="#fdb462" stroke="#000000" cx="315" cy="-104" rx="72.9121" ry="18"/>
<text text-anchor="middle" x="315" y="-99.8" font-family="Times,serif" font-size="14.00" fill="#000000">AuthInterceptor</text>
</g>
<!-- BackendModule -->
<g id="node3" class="node">
<title>BackendModule</title>
<polygon fill="#8dd3c7" stroke="#000000" points="294.0312,-187 291.0312,-191 270.0312,-191 267.0312,-187 185.9688,-187 185.9688,-151 294.0312,-151 294.0312,-187"/>
<text text-anchor="middle" x="240" y="-164.8" font-family="Times,serif" font-size="14.00" fill="#000000">BackendModule</text>
</g>
<!-- AuthInterceptor&#45;&gt;BackendModule -->
<g id="edge1" class="edge">
<title>AuthInterceptor&#45;&gt;BackendModule</title>
<path fill="none" stroke="#000000" d="M268.2797,-118.104C268.2797,-118.104 268.2797,-140.7209 268.2797,-140.7209"/>
<polygon fill="#000000" stroke="#000000" points="264.7798,-140.7209 268.2797,-150.7209 271.7798,-140.7209 264.7798,-140.7209"/>
</g>
<!-- DataService -->
<g id="node2" class="node">
<title>DataService</title>
<ellipse fill="#fdb462" stroke="#000000" cx="166" cy="-104" rx="58.4415" ry="18"/>
<text text-anchor="middle" x="166" y="-99.8" font-family="Times,serif" font-size="14.00" fill="#000000">DataService</text>
</g>
<!-- DataService&#45;&gt;BackendModule -->
<g id="edge2" class="edge">
<title>DataService&#45;&gt;BackendModule</title>
<path fill="none" stroke="#000000" d="M204.9776,-117.468C204.9776,-117.468 204.9776,-140.8642 204.9776,-140.8642"/>
<polygon fill="#000000" stroke="#000000" points="201.4777,-140.8641 204.9776,-150.8642 208.4777,-140.8642 201.4777,-140.8641"/>
</g>
</g>
</svg>
