<?xml version="1.0" encoding="UTF-8" standalone="no"?>
<!DOCTYPE svg PUBLIC "-//W3C//DTD SVG 1.1//EN"
 "http://www.w3.org/Graphics/SVG/1.1/DTD/svg11.dtd">
<!-- Generated by graphviz version 2.40.1 (20161225.0304)
 -->
<!-- Title: dependencies Pages: 1 -->
<svg width="2559pt" height="284pt"
 viewBox="0.00 0.00 2559.00 284.00" xmlns="http://www.w3.org/2000/svg" xmlns:xlink="http://www.w3.org/1999/xlink">
<g id="graph0" class="graph" transform="scale(1 1) rotate(0) translate(4 280)">
<title>dependencies</title>
<polygon fill="#ffffff" stroke="transparent" points="-4,4 -4,-280 2555,-280 2555,4 -4,4"/>
<text text-anchor="start" x="1254.5091" y="-42.4" font-family="sans-serif" font-weight="bold" font-size="14.00" fill="#000000">Legend</text>
<polygon fill="#ffffb3" stroke="transparent" points="1041.5,-10 1041.5,-30 1061.5,-30 1061.5,-10 1041.5,-10"/>
<text text-anchor="start" x="1065.129" y="-15.4" font-family="sans-serif" font-size="14.00" fill="#000000"> &#160;Declarations</text>
<polygon fill="#8dd3c7" stroke="transparent" points="1154.5,-10 1154.5,-30 1174.5,-30 1174.5,-10 1154.5,-10"/>
<text text-anchor="start" x="1178.2251" y="-15.4" font-family="sans-serif" font-size="14.00" fill="#000000"> &#160;Module</text>
<polygon fill="#80b1d3" stroke="transparent" points="1240.5,-10 1240.5,-30 1260.5,-30 1260.5,-10 1240.5,-10"/>
<text text-anchor="start" x="1264.2812" y="-15.4" font-family="sans-serif" font-size="14.00" fill="#000000"> &#160;Bootstrap</text>
<polygon fill="#fdb462" stroke="transparent" points="1337.5,-10 1337.5,-30 1357.5,-30 1357.5,-10 1337.5,-10"/>
<text text-anchor="start" x="1361.1732" y="-15.4" font-family="sans-serif" font-size="14.00" fill="#000000"> &#160;Providers</text>
<polygon fill="#fb8072" stroke="transparent" points="1433.5,-10 1433.5,-30 1453.5,-30 1453.5,-10 1433.5,-10"/>
<text text-anchor="start" x="1457.2258" y="-15.4" font-family="sans-serif" font-size="14.00" fill="#000000"> &#160;Exports</text>
<g id="clust1" class="cluster">
<title>cluster_AppModule</title>
<polygon fill="none" stroke="#000000" stroke-dasharray="1,5" points="8,-70 8,-268 2543,-268 2543,-70 8,-70"/>
</g>
<g id="clust2" class="cluster">
<title>cluster_AppModule_declarations</title>
<polygon fill="none" stroke="#000000" points="1611,-78 1611,-130 2535,-130 2535,-78 1611,-78"/>
</g>
<g id="clust9" class="cluster">
<title>cluster_AppModule_imports</title>
<polygon fill="none" stroke="#000000" points="1179,-78 1179,-130 1603,-130 1603,-78 1179,-78"/>
</g>
<g id="clust11" class="cluster">
<title>cluster_AppModule_bootstrap</title>
<polygon fill="none" stroke="#000000" points="1272,-208 1272,-260 1396,-260 1396,-208 1272,-208"/>
</g>
<g id="clust12" class="cluster">
<title>cluster_AppModule_providers</title>
<polygon fill="none" stroke="#000000" points="16,-78 16,-130 1171,-130 1171,-78 16,-78"/>
</g>
<!-- AppComponent -->
<g id="node1" class="node">
<title>AppComponent</title>
<polygon fill="#ffffb3" stroke="#000000" points="2526.9399,-122 2421.0601,-122 2421.0601,-86 2526.9399,-86 2526.9399,-122"/>
<text text-anchor="middle" x="2474" y="-99.8" font-family="Times,serif" font-size="14.00" fill="#000000">AppComponent</text>
</g>
<!-- AppModule -->
<g id="node7" class="node">
<title>AppModule</title>
<polygon fill="#8dd3c7" stroke="#000000" points="1375.6571,-187 1372.6571,-191 1351.6571,-191 1348.6571,-187 1292.3429,-187 1292.3429,-151 1375.6571,-151 1375.6571,-187"/>
<text text-anchor="middle" x="1334" y="-164.8" font-family="Times,serif" font-size="14.00" fill="#000000">AppModule</text>
</g>
<!-- AppComponent&#45;&gt;AppModule -->
<g id="edge1" class="edge">
<title>AppComponent&#45;&gt;AppModule</title>
<path fill="none" stroke="#000000" d="M2474,-122.3228C2474,-145.6602 2474,-183 2474,-183 2474,-183 1385.9252,-183 1385.9252,-183"/>
<polygon fill="#000000" stroke="#000000" points="1385.9252,-179.5001 1375.9252,-183 1385.9252,-186.5001 1385.9252,-179.5001"/>
</g>
<!-- GuestProfileComponent -->
<g id="node2" class="node">
<title>GuestProfileComponent</title>
<polygon fill="#ffffb3" stroke="#000000" points="2403.0884,-122 2250.9116,-122 2250.9116,-86 2403.0884,-86 2403.0884,-122"/>
<text text-anchor="middle" x="2327" y="-99.8" font-family="Times,serif" font-size="14.00" fill="#000000">GuestProfileComponent</text>
</g>
<!-- GuestProfileComponent&#45;&gt;AppModule -->
<g id="edge2" class="edge">
<title>GuestProfileComponent&#45;&gt;AppModule</title>
<path fill="none" stroke="#000000" d="M2327,-122.2921C2327,-144.2057 2327,-178 2327,-178 2327,-178 1385.7182,-178 1385.7182,-178"/>
<polygon fill="#000000" stroke="#000000" points="1385.7182,-174.5001 1375.7182,-178 1385.7182,-181.5001 1385.7182,-174.5001"/>
</g>
<!-- HomeComponent -->
<g id="node3" class="node">
<title>HomeComponent</title>
<polygon fill="#ffffb3" stroke="#000000" points="2232.5451,-122 2117.4549,-122 2117.4549,-86 2232.5451,-86 2232.5451,-122"/>
<text text-anchor="middle" x="2175" y="-99.8" font-family="Times,serif" font-size="14.00" fill="#000000">HomeComponent</text>
</g>
<!-- HomeComponent&#45;&gt;AppModule -->
<g id="edge3" class="edge">
<title>HomeComponent&#45;&gt;AppModule</title>
<path fill="none" stroke="#000000" d="M2175,-122.0267C2175,-142.7672 2175,-174 2175,-174 2175,-174 1385.7053,-174 1385.7053,-174"/>
<polygon fill="#000000" stroke="#000000" points="1385.7054,-170.5001 1375.7053,-174 1385.7053,-177.5001 1385.7054,-170.5001"/>
</g>
<!-- HotelWalkinComponent -->
<g id="node4" class="node">
<title>HotelWalkinComponent</title>
<polygon fill="#ffffb3" stroke="#000000" points="2098.6456,-122 1945.3544,-122 1945.3544,-86 2098.6456,-86 2098.6456,-122"/>
<text text-anchor="middle" x="2022" y="-99.8" font-family="Times,serif" font-size="14.00" fill="#000000">HotelWalkinComponent</text>
</g>
<!-- HotelWalkinComponent&#45;&gt;AppModule -->
<g id="edge4" class="edge">
<title>HotelWalkinComponent&#45;&gt;AppModule</title>
<path fill="none" stroke="#000000" d="M2022,-122.1061C2022,-141.3391 2022,-169 2022,-169 2022,-169 1385.7446,-169 1385.7446,-169"/>
<polygon fill="#000000" stroke="#000000" points="1385.7447,-165.5001 1375.7446,-169 1385.7446,-172.5001 1385.7447,-165.5001"/>
</g>
<!-- MainDashboardComponent -->
<g id="node5" class="node">
<title>MainDashboardComponent</title>
<polygon fill="#ffffb3" stroke="#000000" points="1926.5239,-122 1755.4761,-122 1755.4761,-86 1926.5239,-86 1926.5239,-122"/>
<text text-anchor="middle" x="1841" y="-99.8" font-family="Times,serif" font-size="14.00" fill="#000000">MainDashboardComponent</text>
</g>
<!-- MainDashboardComponent&#45;&gt;AppModule -->
<g id="edge5" class="edge">
<title>MainDashboardComponent&#45;&gt;AppModule</title>
<path fill="none" stroke="#000000" d="M1841,-122.302C1841,-140.2699 1841,-165 1841,-165 1841,-165 1385.9213,-165 1385.9213,-165"/>
<polygon fill="#000000" stroke="#000000" points="1385.9213,-161.5001 1375.9213,-165 1385.9212,-168.5001 1385.9213,-161.5001"/>
</g>
<!-- TickerComponent -->
<g id="node6" class="node">
<title>TickerComponent</title>
<polygon fill="#ffffb3" stroke="#000000" points="1736.8655,-122 1619.1345,-122 1619.1345,-86 1736.8655,-86 1736.8655,-122"/>
<text text-anchor="middle" x="1678" y="-99.8" font-family="Times,serif" font-size="14.00" fill="#000000">TickerComponent</text>
</g>
<!-- TickerComponent&#45;&gt;AppModule -->
<g id="edge6" class="edge">
<title>TickerComponent&#45;&gt;AppModule</title>
<path fill="none" stroke="#000000" d="M1678,-122.027C1678,-138.3976 1678,-160 1678,-160 1678,-160 1385.8372,-160 1385.8372,-160"/>
<polygon fill="#000000" stroke="#000000" points="1385.8373,-156.5001 1375.8372,-160 1385.8372,-163.5001 1385.8373,-156.5001"/>
</g>
<!-- AppComponent  -->
<g id="node11" class="node">
<title>AppComponent </title>
<polygon fill="#80b1d3" stroke="#000000" points="1388.439,-252 1279.561,-252 1279.561,-216 1388.439,-216 1388.439,-252"/>
<text text-anchor="middle" x="1334" y="-229.8" font-family="Times,serif" font-size="14.00" fill="#000000">AppComponent </text>
</g>
<!-- AppModule&#45;&gt;AppComponent  -->
<g id="edge10" class="edge">
<title>AppModule&#45;&gt;AppComponent </title>
<path fill="none" stroke="#000000" stroke-dasharray="1,5" d="M1334,-187.1061C1334,-187.1061 1334,-205.991 1334,-205.991"/>
<polygon fill="#000000" stroke="#000000" points="1330.5001,-205.9909 1334,-215.991 1337.5001,-205.991 1330.5001,-205.9909"/>
</g>
<!-- BackendModule -->
<g id="node8" class="node">
<title>BackendModule</title>
<polygon fill="#8dd3c7" stroke="#000000" points="1595.0312,-122 1592.0312,-126 1571.0312,-126 1568.0312,-122 1486.9688,-122 1486.9688,-86 1595.0312,-86 1595.0312,-122"/>
<text text-anchor="middle" x="1541" y="-99.8" font-family="Times,serif" font-size="14.00" fill="#000000">BackendModule</text>
</g>
<!-- BackendModule&#45;&gt;AppModule -->
<g id="edge7" class="edge">
<title>BackendModule&#45;&gt;AppModule</title>
<path fill="none" stroke="#000000" d="M1541,-122.1871C1541,-137.1824 1541,-156 1541,-156 1541,-156 1385.8895,-156 1385.8895,-156"/>
<polygon fill="#000000" stroke="#000000" points="1385.8896,-152.5001 1375.8895,-156 1385.8895,-159.5001 1385.8896,-152.5001"/>
</g>
<!-- DashboardModule -->
<g id="node9" class="node">
<title>DashboardModule</title>
<polygon fill="#8dd3c7" stroke="#000000" points="1469.191,-122 1466.191,-126 1445.191,-126 1442.191,-122 1348.809,-122 1348.809,-86 1469.191,-86 1469.191,-122"/>
<text text-anchor="middle" x="1409" y="-99.8" font-family="Times,serif" font-size="14.00" fill="#000000">DashboardModule</text>
</g>
<!-- DashboardModule&#45;&gt;AppModule -->
<g id="edge8" class="edge">
<title>DashboardModule&#45;&gt;AppModule</title>
<path fill="none" stroke="#000000" d="M1362.3664,-122.1061C1362.3664,-122.1061 1362.3664,-140.991 1362.3664,-140.991"/>
<polygon fill="#000000" stroke="#000000" points="1358.8665,-140.9909 1362.3664,-150.991 1365.8665,-140.991 1358.8665,-140.9909"/>
</g>
<!-- RoomManagerModule -->
<g id="node10" class="node">
<title>RoomManagerModule</title>
<polygon fill="#8dd3c7" stroke="#000000" points="1330.5268,-122 1327.5268,-126 1306.5268,-126 1303.5268,-122 1187.4732,-122 1187.4732,-86 1330.5268,-86 1330.5268,-122"/>
<text text-anchor="middle" x="1259" y="-99.8" font-family="Times,serif" font-size="14.00" fill="#000000">RoomManagerModule</text>
</g>
<!-- RoomManagerModule&#45;&gt;AppModule -->
<g id="edge9" class="edge">
<title>RoomManagerModule&#45;&gt;AppModule</title>
<path fill="none" stroke="#000000" d="M1311.4674,-122.1061C1311.4674,-122.1061 1311.4674,-140.991 1311.4674,-140.991"/>
<polygon fill="#000000" stroke="#000000" points="1307.9675,-140.9909 1311.4674,-150.991 1314.9675,-140.991 1307.9675,-140.9909"/>
</g>
<!-- AccountsService -->
<g id="node12" class="node">
<title>AccountsService</title>
<ellipse fill="#fdb462" stroke="#000000" cx="1087" cy="-104" rx="76.4227" ry="18"/>
<text text-anchor="middle" x="1087" y="-99.8" font-family="Times,serif" font-size="14.00" fill="#000000">AccountsService</text>
</g>
<!-- AccountsService&#45;&gt;AppModule -->
<g id="edge11" class="edge">
<title>AccountsService&#45;&gt;AppModule</title>
<path fill="none" stroke="#000000" d="M1087,-122.1871C1087,-137.1824 1087,-156 1087,-156 1087,-156 1282.0998,-156 1282.0998,-156"/>
<polygon fill="#000000" stroke="#000000" points="1282.0999,-159.5001 1292.0998,-156 1282.0998,-152.5001 1282.0999,-159.5001"/>
</g>
<!-- AuthInterceptor -->
<g id="node13" class="node">
<title>AuthInterceptor</title>
<ellipse fill="#fdb462" stroke="#000000" cx="920" cy="-104" rx="72.9121" ry="18"/>
<text text-anchor="middle" x="920" y="-99.8" font-family="Times,serif" font-size="14.00" fill="#000000">AuthInterceptor</text>
</g>
<!-- AuthInterceptor&#45;&gt;AppModule -->
<g id="edge12" class="edge">
<title>AuthInterceptor&#45;&gt;AppModule</title>
<path fill="none" stroke="#000000" d="M920,-122.027C920,-138.3976 920,-160 920,-160 920,-160 1282.0252,-160 1282.0252,-160"/>
<polygon fill="#000000" stroke="#000000" points="1282.0252,-163.5001 1292.0252,-160 1282.0251,-156.5001 1282.0252,-163.5001"/>
</g>
<!-- FloorService -->
<g id="node14" class="node">
<title>FloorService</title>
<ellipse fill="#fdb462" stroke="#000000" cx="768" cy="-104" rx="60.8313" ry="18"/>
<text text-anchor="middle" x="768" y="-99.8" font-family="Times,serif" font-size="14.00" fill="#000000">FloorService</text>
</g>
<!-- FloorService&#45;&gt;AppModule -->
<g id="edge13" class="edge">
<title>FloorService&#45;&gt;AppModule</title>
<path fill="none" stroke="#000000" d="M768,-122.302C768,-140.2699 768,-165 768,-165 768,-165 1281.9204,-165 1281.9204,-165"/>
<polygon fill="#000000" stroke="#000000" points="1281.9205,-168.5001 1291.9204,-165 1281.9204,-161.5001 1281.9205,-168.5001"/>
</g>
<!-- HeaderInterceptor -->
<g id="node15" class="node">
<title>HeaderInterceptor</title>
<ellipse fill="#fdb462" stroke="#000000" cx="608" cy="-104" rx="81.0378" ry="18"/>
<text text-anchor="middle" x="608" y="-99.8" font-family="Times,serif" font-size="14.00" fill="#000000">HeaderInterceptor</text>
</g>
<!-- HeaderInterceptor&#45;&gt;AppModule -->
<g id="edge14" class="edge">
<title>HeaderInterceptor&#45;&gt;AppModule</title>
<path fill="none" stroke="#000000" d="M608,-122.1061C608,-141.3391 608,-169 608,-169 608,-169 1282.0947,-169 1282.0947,-169"/>
<polygon fill="#000000" stroke="#000000" points="1282.0947,-172.5001 1292.0947,-169 1282.0947,-165.5001 1282.0947,-172.5001"/>
</g>
<!-- OutoforderService -->
<g id="node16" class="node">
<title>OutoforderService</title>
<ellipse fill="#fdb462" stroke="#000000" cx="426" cy="-104" rx="82.7839" ry="18"/>
<text text-anchor="middle" x="426" y="-99.8" font-family="Times,serif" font-size="14.00" fill="#000000">OutoforderService</text>
</g>
<!-- OutoforderService&#45;&gt;AppModule -->
<g id="edge15" class="edge">
<title>OutoforderService&#45;&gt;AppModule</title>
<path fill="none" stroke="#000000" d="M426,-122.0267C426,-142.7672 426,-174 426,-174 426,-174 1282.3265,-174 1282.3265,-174"/>
<polygon fill="#000000" stroke="#000000" points="1282.3265,-177.5001 1292.3265,-174 1282.3264,-170.5001 1282.3265,-177.5001"/>
</g>
<!-- RoomtypeService -->
<g id="node17" class="node">
<title>RoomtypeService</title>
<ellipse fill="#fdb462" stroke="#000000" cx="245" cy="-104" rx="80.4577" ry="18"/>
<text text-anchor="middle" x="245" y="-99.8" font-family="Times,serif" font-size="14.00" fill="#000000">RoomtypeService</text>
</g>
<!-- RoomtypeService&#45;&gt;AppModule -->
<g id="edge16" class="edge">
<title>RoomtypeService&#45;&gt;AppModule</title>
<path fill="none" stroke="#000000" d="M245,-122.2921C245,-144.2057 245,-178 245,-178 245,-178 1282.309,-178 1282.309,-178"/>
<polygon fill="#000000" stroke="#000000" points="1282.3091,-181.5001 1292.309,-178 1282.309,-174.5001 1282.3091,-181.5001"/>
</g>
<!-- WingService -->
<g id="node18" class="node">
<title>WingService</title>
<ellipse fill="#fdb462" stroke="#000000" cx="85" cy="-104" rx="61.3954" ry="18"/>
<text text-anchor="middle" x="85" y="-99.8" font-family="Times,serif" font-size="14.00" fill="#000000">WingService</text>
</g>
<!-- WingService&#45;&gt;AppModule -->
<g id="edge17" class="edge">
<title>WingService&#45;&gt;AppModule</title>
<path fill="none" stroke="#000000" d="M85,-122.3228C85,-145.6602 85,-183 85,-183 85,-183 1282.0864,-183 1282.0864,-183"/>
<polygon fill="#000000" stroke="#000000" points="1282.0864,-186.5001 1292.0864,-183 1282.0864,-179.5001 1282.0864,-186.5001"/>
</g>
</g>
</svg>
